<svg width="452" height="203" viewBox="0 0 452 203" fill="none" xmlns="http://www.w3.org/2000/svg">
<path opacity="0.4" d="M449.247 62.7726C448.834 62.4873 448.545 62.0391 448.545 61.5093C448.545 60.9796 448.834 60.5314 449.247 60.2461L434.445 34.9543C434.238 35.0493 434.018 35.1173 433.77 35.1173C432.944 35.1173 432.283 34.4924 432.2 33.7046H402.568C402.485 34.4924 401.824 35.1173 400.998 35.1173C400.778 35.1173 400.557 35.0765 400.365 34.9814L385.548 60.2868C385.92 60.5721 386.182 61.0068 386.182 61.5093C386.182 62.0119 385.92 62.4466 385.548 62.7318L400.365 88.0508C400.557 87.9693 400.778 87.915 401.012 87.915C401.838 87.915 402.499 88.5398 402.581 89.3412H432.228C432.31 88.5534 432.971 87.915 433.784 87.915C434.018 87.915 434.238 87.9693 434.445 88.0644L449.247 62.7726ZM399.428 89.4906C399.428 88.9609 399.704 88.5126 400.117 88.2274L385.3 62.9084C385.094 63.0035 384.86 63.0714 384.612 63.0714C383.786 63.0714 383.139 62.4466 383.042 61.6588H353.41C353.327 62.4466 352.666 63.0714 351.854 63.0714C351.634 63.0714 351.427 63.0306 351.234 62.9491L336.446 88.2274C336.845 88.5126 337.12 88.9609 337.12 89.4906C337.12 90.0204 336.845 90.455 336.446 90.7403L351.248 116.032C351.455 115.937 351.661 115.883 351.909 115.883C352.735 115.883 353.382 116.508 353.465 117.295H383.084C383.166 116.508 383.827 115.883 384.653 115.883C384.887 115.883 385.108 115.937 385.3 116.032L400.103 90.7403C399.717 90.455 399.428 90.0068 399.428 89.4906ZM350.973 62.7726C350.56 62.4873 350.27 62.0391 350.27 61.4958C350.27 60.966 350.56 60.5042 350.973 60.2325L336.184 34.9543C335.991 35.0358 335.771 35.1037 335.537 35.1037C334.711 35.1037 334.05 34.4789 333.967 33.691H304.348C304.266 34.4789 303.605 35.1037 302.779 35.1037C302.545 35.1037 302.324 35.0493 302.132 34.9678L287.329 60.2597C287.728 60.5449 288.004 60.9932 288.004 61.5093C288.004 62.0391 287.715 62.4873 287.315 62.759L302.118 88.0508C302.324 87.9557 302.545 87.9014 302.779 87.9014C303.605 87.9014 304.266 88.5262 304.348 89.3276H333.981C334.063 88.5398 334.724 87.9014 335.551 87.9014C335.785 87.9014 336.005 87.9557 336.198 88.0372L350.973 62.7726ZM287.04 60.0695L301.842 34.7777C301.443 34.4924 301.154 34.0442 301.154 33.528C301.154 32.9983 301.443 32.55 301.842 32.2648L287.04 6.97296C286.833 7.06805 286.613 7.12238 286.379 7.12238C285.553 7.12238 284.892 6.49754 284.809 5.70972H255.191C255.108 6.49754 254.447 7.12238 253.635 7.12238C253.401 7.12238 253.18 7.06805 252.987 6.97296L238.185 32.2648C238.584 32.55 238.86 32.9983 238.86 33.5144C238.86 34.0442 238.584 34.4788 238.185 34.7641L252.987 60.0559C253.194 59.9744 253.401 59.9065 253.635 59.9065C254.461 59.9065 255.122 60.5313 255.204 61.3327H284.837C284.919 60.5449 285.58 59.9065 286.407 59.9065C286.627 59.9201 286.847 59.988 287.04 60.0695ZM451.739 61.4958C451.739 62.3651 451.023 63.0714 450.142 63.0714C449.908 63.0714 449.701 63.0171 449.509 62.9356L434.706 88.2274C435.105 88.5126 435.381 88.9609 435.381 89.4906C435.381 90.36 434.665 91.0663 433.784 91.0663C432.957 91.0663 432.296 90.4415 432.228 89.6401H402.595C402.513 90.4279 401.852 91.0663 401.025 91.0663C400.791 91.0663 400.571 91.012 400.378 90.9169L385.576 116.209C385.975 116.494 386.251 116.942 386.251 117.458C386.251 118.328 385.535 119.034 384.653 119.034C383.827 119.034 383.166 118.409 383.084 117.608H353.465C353.382 118.396 352.721 119.034 351.909 119.034C351.028 119.034 350.312 118.328 350.312 117.458C350.312 116.929 350.587 116.494 350.986 116.209L336.184 90.9169C335.977 91.012 335.771 91.0663 335.523 91.0663C334.697 91.0663 334.036 90.4415 333.953 89.6401H304.321C304.238 90.4279 303.577 91.0663 302.751 91.0663C301.87 91.0663 301.154 90.36 301.154 89.4906C301.154 88.9609 301.429 88.5262 301.842 88.241L287.04 62.9491C286.833 63.0442 286.627 63.085 286.393 63.085C285.567 63.085 284.906 62.4601 284.823 61.6723H255.191C255.108 62.4601 254.447 63.085 253.621 63.085C253.387 63.085 253.166 63.0307 252.974 62.9356L238.171 88.2274C238.571 88.5126 238.846 88.9609 238.846 89.4771C238.846 90.3464 238.13 91.0527 237.249 91.0527C236.423 91.0527 235.762 90.4279 235.679 89.6265H206.06C205.978 90.4143 205.317 91.0527 204.491 91.0527C203.609 91.0527 202.893 90.3464 202.893 89.4771C202.893 88.9473 203.169 88.4991 203.582 88.2138L188.779 62.922C188.573 63.0171 188.366 63.0714 188.118 63.0714C187.292 63.0714 186.631 62.4466 186.549 61.6452H156.93C156.847 62.4466 156.187 63.0714 155.36 63.0714C155.126 63.0714 154.906 63.0171 154.699 62.922L139.897 88.2138C140.31 88.4991 140.585 88.9473 140.585 89.4771C140.585 90.0068 140.31 90.4415 139.911 90.7267L154.713 116.019C154.92 115.923 155.14 115.869 155.374 115.869C156.2 115.869 156.847 116.494 156.93 117.295H186.549C186.631 116.508 187.292 115.869 188.118 115.869C189 115.869 189.716 116.575 189.716 117.445C189.716 117.975 189.44 118.409 189.041 118.694L203.843 143.986C204.036 143.891 204.257 143.837 204.491 143.837C205.372 143.837 206.088 144.543 206.088 145.413C206.088 146.282 205.372 146.988 204.491 146.988C204.257 146.988 204.036 146.934 203.83 146.839L189.027 172.131C189.427 172.416 189.702 172.864 189.702 173.38C189.702 174.25 188.986 174.956 188.105 174.956C187.279 174.956 186.618 174.331 186.535 173.543H156.93C156.847 174.331 156.187 174.956 155.36 174.956C155.126 174.956 154.906 174.902 154.699 174.806L139.897 200.098C140.296 200.384 140.585 200.832 140.585 201.348C140.585 202.217 139.869 202.924 138.988 202.924C138.162 202.924 137.501 202.299 137.418 201.497H107.8C107.717 202.285 107.056 202.924 106.23 202.924C105.349 202.924 104.633 202.217 104.633 201.348C104.633 200.818 104.908 200.384 105.307 200.098L90.5051 174.806C90.2985 174.888 90.092 174.956 89.8579 174.956C89.0317 174.956 88.3708 174.331 88.3019 173.543H58.6833C58.6006 174.331 57.9397 174.956 57.1136 174.956C56.8795 174.956 56.6591 174.902 56.4526 174.806L41.6502 200.098C42.0495 200.384 42.3249 200.832 42.3249 201.348C42.3249 202.217 41.6089 202.924 40.7276 202.924C39.9014 202.924 39.2405 202.299 39.1578 201.497H9.53922C9.4566 202.285 8.79568 202.924 7.96948 202.924C7.08823 202.924 6.37219 202.217 6.37219 201.348C6.37219 200.818 6.64758 200.384 7.04691 200.098L-7.75552 174.806C-7.96207 174.888 -8.16861 174.956 -8.40268 174.956C-9.28397 174.956 -9.99997 174.25 -9.99997 173.38C-9.99997 172.511 -9.28397 171.805 -8.40268 171.805C-8.16861 171.805 -7.94827 171.859 -7.74173 171.954L7.04691 146.676C6.62006 146.39 6.3309 145.942 6.3309 145.399C6.3309 144.53 7.04694 143.823 7.92819 143.823C8.75436 143.823 9.41528 144.448 9.49792 145.25H39.1165C39.1992 144.462 39.8601 143.823 40.6863 143.823C40.9342 143.823 41.1682 143.891 41.3748 144L56.1772 118.708C55.7504 118.423 55.4612 117.961 55.4612 117.418C55.4612 116.548 56.1772 115.842 57.0585 115.842C57.8846 115.842 58.5456 116.467 58.6282 117.268H88.3019C88.3845 116.48 89.0455 115.842 89.8717 115.842C90.1057 115.842 90.326 115.896 90.5188 115.991L105.321 90.6995C104.922 90.4143 104.633 89.966 104.633 89.4499C104.633 88.9337 104.908 88.4855 105.307 88.2002L90.4775 62.8676C90.271 62.9627 90.0369 63.0442 89.789 63.0442C88.9077 63.0442 88.1918 62.3379 88.1918 61.4686C88.1918 60.5993 88.9077 59.8929 89.789 59.8929C90.0369 59.8929 90.271 59.9609 90.4913 60.0695L105.294 34.7777C104.867 34.4924 104.578 34.0306 104.578 33.4873C104.578 32.618 105.294 31.9116 106.175 31.9116C107.001 31.9116 107.662 32.5365 107.745 33.3379H137.377C137.46 32.5365 138.121 31.9116 138.947 31.9116C139.195 31.9116 139.415 31.9796 139.622 32.0746L154.424 6.7828C154.011 6.49755 153.722 6.04931 153.722 5.50598C153.722 4.97623 154.011 4.5144 154.424 4.22916L139.622 -21.0627C139.415 -20.9676 139.195 -20.8997 138.947 -20.8997C138.121 -20.8997 137.46 -21.5245 137.377 -22.3123V-22.6247C137.46 -23.4126 138.121 -24.051 138.947 -24.051C139.195 -24.051 139.415 -23.9831 139.622 -23.888L154.424 -49.1934C154.011 -49.4786 153.735 -49.9269 153.735 -50.4566C153.735 -50.9864 154.025 -51.4346 154.438 -51.7199L154.699 -51.8964C154.892 -51.9779 155.112 -52.0323 155.333 -52.0323C156.159 -52.0323 156.82 -51.4075 156.903 -50.606H186.549C186.631 -51.3939 187.292 -52.0323 188.118 -52.0323C188.366 -52.0323 188.587 -51.9644 188.793 -51.8693L203.609 -77.1747C203.21 -77.4599 202.935 -77.9082 202.935 -78.4243C202.935 -79.2937 203.651 -80 204.532 -80C205.358 -80 206.019 -79.3752 206.102 -78.5738H235.706C235.789 -79.3616 236.45 -80 237.276 -80C238.158 -80 238.874 -79.2937 238.874 -78.4243C238.874 -77.8946 238.598 -77.4599 238.199 -77.1747L253.001 -51.8829C253.208 -51.9779 253.414 -52.0323 253.648 -52.0323C254.475 -52.0323 255.136 -51.4074 255.218 -50.6196H284.837C284.919 -51.4074 285.58 -52.0323 286.407 -52.0323C286.641 -52.0323 286.861 -51.9779 287.054 -51.8964L287.315 -51.7199C287.715 -51.4346 288.004 -50.9864 288.004 -50.4566C288.004 -49.9269 287.728 -49.4922 287.329 -49.207L302.132 -23.9151C302.338 -24.0102 302.545 -24.0646 302.779 -24.0646C303.605 -24.0646 304.266 -23.4397 304.348 -22.6383V-22.3259C304.266 -21.5381 303.605 -20.8997 302.779 -20.8997C302.545 -20.8997 302.324 -20.954 302.132 -21.0491L287.329 4.24274C287.728 4.52798 288.004 4.97624 288.004 5.4924C288.004 6.02215 287.728 6.4568 287.329 6.74205L302.132 32.0339C302.338 31.9388 302.545 31.8845 302.779 31.8845C303.605 31.8845 304.266 32.5093 304.348 33.3107H333.967C334.05 32.5093 334.711 31.8845 335.537 31.8845C336.418 31.8845 337.134 32.5908 337.134 33.4601C337.134 33.9899 336.859 34.4245 336.446 34.7233L351.234 60.0016C351.427 59.9201 351.634 59.8658 351.868 59.8658C352.694 59.8658 353.355 60.4906 353.424 61.292H383.042C383.125 60.4906 383.786 59.8658 384.612 59.8658C384.86 59.8658 385.094 59.9337 385.314 60.0423L400.13 34.7369C399.717 34.4517 399.428 34.0034 399.428 33.4601C399.428 32.5908 400.144 31.8845 401.025 31.8845C401.852 31.8845 402.513 32.5093 402.595 33.3107H432.228C432.31 32.5093 432.971 31.8845 433.797 31.8845C434.679 31.8845 435.395 32.5908 435.395 33.4601C435.395 33.9763 435.119 34.4109 434.734 34.6962L449.536 59.988C449.729 59.9065 449.949 59.8522 450.17 59.8522C451.037 59.9201 451.739 60.6264 451.739 61.4958ZM252.987 -48.9897L245.593 -36.3573L238.185 -23.6978C238.584 -23.4126 238.874 -22.9643 238.874 -22.4346C238.874 -21.9048 238.598 -21.4702 238.185 -21.1849L252.987 4.10692C253.18 4.01183 253.401 3.9575 253.635 3.9575C254.461 3.9575 255.122 4.58233 255.191 5.38374H284.809C284.892 4.59592 285.553 3.9575 286.379 3.9575C286.613 3.9575 286.833 4.01183 287.04 4.10692L301.842 -21.1849C301.443 -21.4702 301.154 -21.9184 301.154 -22.4346C301.154 -22.9643 301.429 -23.399 301.829 -23.6842L287.026 -48.9761C286.82 -48.881 286.613 -48.8266 286.379 -48.8266C285.553 -48.8266 284.892 -49.4515 284.809 -50.2529H255.191C255.108 -49.4651 254.447 -48.8266 253.621 -48.8266C253.401 -48.8402 253.18 -48.8946 252.987 -48.9897ZM189.688 5.53315C189.688 6.04931 189.413 6.48396 189.027 6.7692L203.83 32.0611C204.022 31.9796 204.243 31.9252 204.463 31.9252C205.289 31.9252 205.95 32.55 206.033 33.3515H235.706C235.789 32.55 236.45 31.9252 237.276 31.9252C237.51 31.9252 237.731 31.9796 237.937 32.0746L252.74 6.7828C252.327 6.49755 252.051 6.0493 252.051 5.51955C252.051 4.98981 252.34 4.55515 252.74 4.26991L237.937 -21.0219C237.731 -20.9404 237.524 -20.8725 237.29 -20.8725C236.464 -20.8725 235.803 -21.4973 235.72 -22.2987H206.088C206.005 -21.5109 205.344 -20.8725 204.518 -20.8725C204.284 -20.8725 204.064 -20.9268 203.871 -21.0219L189.055 4.28349C189.427 4.59589 189.688 5.03058 189.688 5.53315ZM189.716 -50.4159C189.716 -49.8997 189.44 -49.4651 189.055 -49.1798L203.857 -23.8744C204.064 -23.9695 204.27 -24.0238 204.504 -24.0238C205.331 -24.0238 205.992 -23.399 206.074 -22.5976H235.706C235.789 -23.3854 236.45 -24.0238 237.276 -24.0238C237.51 -24.0238 237.731 -23.9695 237.937 -23.8744L245.332 -36.5067L252.74 -49.1662C252.34 -49.4515 252.051 -49.8997 252.051 -50.4295C252.051 -50.9592 252.327 -51.3939 252.74 -51.6791L237.937 -76.971C237.731 -76.8759 237.524 -76.8215 237.29 -76.8215C236.464 -76.8215 235.803 -77.4464 235.72 -78.2478H206.102C206.019 -77.4599 205.358 -76.8215 204.532 -76.8215C204.298 -76.8215 204.078 -76.8759 203.885 -76.971L189.069 -51.6655C189.44 -51.3803 189.716 -50.932 189.716 -50.4159ZM154.713 4.09332C154.906 4.01182 155.112 3.9575 155.347 3.9575C156.173 3.9575 156.834 4.58233 156.916 5.38374H186.549C186.631 4.59592 187.292 3.9575 188.118 3.9575C188.366 3.9575 188.587 4.02541 188.793 4.12049L203.609 -21.1849C203.21 -21.4702 202.921 -21.9184 202.921 -22.4346C202.921 -22.9643 203.196 -23.4126 203.609 -23.6978L188.807 -49.0032C188.6 -48.9082 188.38 -48.8538 188.132 -48.8538C187.306 -48.8538 186.645 -49.4786 186.562 -50.28H156.944C156.861 -49.4922 156.2 -48.8538 155.374 -48.8538C155.154 -48.8538 154.933 -48.9082 154.741 -48.9897L139.938 -23.6842C140.324 -23.399 140.585 -22.9643 140.585 -22.4482C140.585 -21.932 140.324 -21.4973 139.924 -21.2121L154.713 4.09332ZM55.5576 173.421C55.5576 172.891 55.8329 172.457 56.2323 172.171L41.4161 146.839C41.2096 146.947 40.9755 147.015 40.7276 147.015C39.9014 147.015 39.2542 146.39 39.1716 145.603H9.53922C9.4566 146.39 8.79568 147.015 7.96948 147.015C7.74918 147.015 7.54263 146.975 7.34985 146.893L-7.43881 172.171C-7.03949 172.457 -6.7641 172.905 -6.7641 173.421C-6.7641 173.951 -7.03949 174.385 -7.43881 174.671L7.36362 199.962C7.57016 199.867 7.77673 199.813 8.0246 199.813C8.85077 199.813 9.51169 200.438 9.5943 201.226H39.213C39.2956 200.438 39.9565 199.813 40.7827 199.813C41.0168 199.813 41.2371 199.867 41.4298 199.962L56.2323 174.671C55.8467 174.385 55.5576 173.951 55.5576 173.421ZM90.5602 171.995L105.363 146.703C104.963 146.418 104.688 145.969 104.688 145.453C104.688 144.937 104.963 144.489 105.363 144.204L90.5602 118.912C90.3674 118.993 90.1471 119.048 89.913 119.048C89.0868 119.048 88.4258 118.423 88.3432 117.635H58.6695C58.5869 118.423 57.926 119.048 57.1136 119.048C56.8932 119.048 56.6867 119.007 56.4939 118.925L41.6915 144.231C42.077 144.516 42.3387 144.951 42.3387 145.453C42.3387 145.969 42.077 146.391 41.6915 146.689L56.5077 172.008C56.7142 171.927 56.9345 171.859 57.1686 171.859C57.9948 171.859 58.6557 172.484 58.7384 173.285H88.357C88.4396 172.497 89.1006 171.859 89.913 171.859C90.1333 171.845 90.3536 171.9 90.5602 171.995ZM154.493 174.671C154.094 174.385 153.818 173.937 153.818 173.421C153.818 172.905 154.094 172.457 154.493 172.171L139.69 146.879C139.498 146.961 139.277 147.015 139.043 147.015C138.217 147.015 137.556 146.391 137.473 145.589H107.855C107.772 146.391 107.111 147.015 106.285 147.015C106.051 147.015 105.831 146.961 105.624 146.866L90.8217 172.158C91.2211 172.443 91.4965 172.891 91.4965 173.407C91.4965 173.937 91.2211 174.372 90.808 174.657L105.61 199.949C105.817 199.854 106.037 199.799 106.271 199.799C107.098 199.799 107.758 200.424 107.841 201.212H137.46C137.542 200.424 138.203 199.799 139.029 199.799C139.264 199.799 139.484 199.854 139.677 199.935L154.493 174.671ZM154.754 118.885L139.952 144.176C140.351 144.462 140.641 144.91 140.641 145.426C140.641 145.956 140.365 146.404 139.952 146.689L154.754 171.981C154.961 171.886 155.181 171.832 155.415 171.832C156.242 171.832 156.903 172.457 156.985 173.258H186.59C186.673 172.47 187.334 171.832 188.16 171.832C188.394 171.832 188.614 171.886 188.821 171.981L203.623 146.689C203.224 146.404 202.935 145.956 202.935 145.44C202.935 144.91 203.21 144.475 203.623 144.19L188.821 118.898C188.614 118.993 188.408 119.048 188.16 119.048C187.334 119.048 186.673 118.423 186.59 117.635H156.971C156.889 118.423 156.228 119.048 155.415 119.048C155.168 119.034 154.947 118.98 154.754 118.885ZM139.69 90.9169C139.484 91.012 139.277 91.0663 139.029 91.0663C138.203 91.0663 137.542 90.4415 137.46 89.6401H107.841C107.758 90.4279 107.098 91.0663 106.285 91.0663C106.051 91.0663 105.831 91.012 105.624 90.9169L90.8217 116.209C91.2211 116.494 91.5102 116.942 91.5102 117.458C91.5102 117.975 91.2348 118.423 90.8355 118.708L105.638 144C105.844 143.905 106.065 143.85 106.299 143.85C107.125 143.85 107.786 144.475 107.869 145.277H137.487C137.57 144.489 138.231 143.85 139.057 143.85C139.291 143.85 139.498 143.905 139.704 143.986L154.507 118.694C154.107 118.409 153.832 117.961 153.832 117.445C153.832 116.915 154.107 116.48 154.507 116.195L139.69 90.9169ZM154.465 62.759C154.066 62.4737 153.791 62.0255 153.791 61.5093C153.791 60.9796 154.066 60.5449 154.465 60.2597L139.649 34.9407C139.443 35.0358 139.222 35.1037 138.974 35.1037C138.148 35.1037 137.501 34.4789 137.418 33.691H107.772C107.69 34.4789 107.029 35.1037 106.216 35.1037C105.996 35.1037 105.789 35.0629 105.61 34.9814L90.808 60.2868C91.1935 60.5721 91.4414 61.0068 91.4414 61.5093C91.4414 62.0255 91.1798 62.4466 90.7942 62.7318L105.624 88.0644C105.831 87.9693 106.051 87.915 106.299 87.915C107.125 87.915 107.772 88.5398 107.855 89.3276H137.473C137.556 88.5398 138.217 87.915 139.043 87.915C139.277 87.915 139.484 87.9693 139.677 88.0508L154.465 62.759ZM196.187 47.4372L203.582 34.7913C203.169 34.506 202.88 34.0578 202.88 33.5144C202.88 32.9847 203.169 32.5229 203.582 32.2512L188.779 6.95937C188.573 7.05445 188.353 7.12238 188.105 7.12238C187.279 7.12238 186.631 6.49754 186.535 5.70972H156.903C156.82 6.49754 156.159 7.12238 155.333 7.12238C155.112 7.12238 154.892 7.08162 154.699 6.98654L139.897 32.292C140.283 32.5772 140.544 33.0119 140.544 33.528C140.544 34.0442 140.283 34.4788 139.897 34.7641L154.713 60.0831C154.92 60.0016 155.126 59.9337 155.36 59.9337C156.187 59.9337 156.847 60.5585 156.93 61.3599H186.549C186.631 60.5721 187.292 59.9337 188.118 59.9337C188.353 59.9337 188.573 59.988 188.766 60.0831L196.187 47.4372ZM252.726 62.759C252.327 62.4737 252.037 62.0255 252.037 61.5093C252.037 60.9796 252.313 60.5449 252.726 60.2597L237.923 34.9678C237.731 35.0629 237.51 35.1037 237.276 35.1037C236.45 35.1037 235.789 34.4789 235.706 33.691H206.033C205.95 34.4789 205.289 35.1037 204.477 35.1037C204.257 35.1037 204.036 35.0629 203.843 34.9814L196.449 47.6002L189.041 60.2597C189.44 60.5449 189.716 60.9932 189.716 61.5093C189.716 62.0391 189.44 62.4737 189.041 62.759L203.843 88.0508C204.05 87.9557 204.27 87.9014 204.504 87.9014C205.331 87.9014 205.992 88.5262 206.074 89.3276H235.693C235.775 88.5398 236.436 87.9014 237.262 87.9014C237.497 87.9014 237.717 87.9557 237.91 88.0508L252.726 62.759Z" fill="#D70051"/>
</svg>
